<svg xmlns="http://www.w3.org/2000/svg" width="178.283" height="64.917" viewBox="0 0 178.283 64.917"><defs><style>.a{fill:#fff;}.b{fill:#ff0023;}.c{fill:#ff004e;}.d{fill:none;stroke:#000;stroke-miterlimit:10;}</style></defs><g transform="translate(0.303)"><g transform="translate(0)"><path class="a" d="M389.39,784.23h4.9V793.9h.082c.478-.828,1-1.62,1.5-2.384l4.951-7.281H406.9l-7.235,9.3,7.617,12.56h-5.75l-5.382-9.426-1.856,2.288V806.1h-4.9Z" transform="translate(-389.39 -783.88)"/><path class="a" d="M441.11,806.1V784.233h5.761l4.54,8.02a62.216,62.216,0,0,1,3.573,7.5l.086-.011a86.754,86.754,0,0,1-.4-9.137V784.23h4.54V806.1h-5.183l-4.686-8.42a80.343,80.343,0,0,1-3.8-7.724l-.107.011c.153,2.9.214,5.993.214,9.562V806.1Z" transform="translate(-422.65 -783.88)"/><path class="b" d="M509.849,783.25a11.109,11.109,0,1,1-11.079,11.14A11.138,11.138,0,0,1,509.849,783.25Zm0,5.807a5.3,5.3,0,1,0,5.3,5.3A5.291,5.291,0,0,0,509.849,789.057Z" transform="translate(-459.73 -783.25)"/><path class="a" d="M568.809,806.105,563.63,784.24h5.3l1.66,9.005c.468,2.6.921,5.443,1.27,7.649h.068c.35-2.377.874-4.993,1.428-7.71l1.874-8.945h5.254l1.749,9.23c.468,2.552.839,4.886,1.153,7.31h.068c.343-2.438.8-4.975,1.285-7.6l1.767-8.941h5.026l-5.639,21.865h-5.34l-1.863-9.416c-.435-2.188-.778-4.251-1.053-6.728h-.064c-.371,2.463-.721,4.536-1.246,6.746l-2.092,9.4Z" transform="translate(-501.44 -783.887)"/><path class="a" d="M644.91,784.23h4.943v17.721h8.7V806.1H644.91Z" transform="translate(-553.709 -783.88)"/><path class="a" d="M700.259,796.854h-8.045v5.2h8.994v4.051H687.27V784.24h13.47v4.051h-8.527v4.555h8.045Z" transform="translate(-580.95 -783.887)"/><path class="a" d="M731.71,784.221a43.432,43.432,0,0,1,6.667-.471c4.147,0,6.86.764,8.955,2.349,2.274,1.7,3.7,4.362,3.7,8.227,0,4.19-1.517,7.089-3.616,8.859-2.3,1.917-5.822,2.83-10.087,2.83a41.708,41.708,0,0,1-5.614-.321V784.221Zm4.936,17.846a10.957,10.957,0,0,0,1.724.086c4.479.039,7.42-2.434,7.42-7.663.011-4.544-2.648-6.932-6.9-6.932a10.776,10.776,0,0,0-2.245.189Z" transform="translate(-609.528 -783.572)"/><path class="a" d="M807.291,804.7a24.279,24.279,0,0,1-7.3,1.228c-3.994,0-6.878-1-8.888-2.934a10.733,10.733,0,0,1-3.091-7.959c.025-7.274,5.325-11.411,12.485-11.411a15.339,15.339,0,0,1,6.078,1.049l-1.035,3.962a12.115,12.115,0,0,0-5.086-.928c-4.122,0-7.256,2.316-7.256,7.074,0,4.515,2.848,7.16,6.9,7.16a7.128,7.128,0,0,0,2.42-.307v-4.6h-3.38v-3.858h8.159V804.7Z" transform="translate(-645.733 -783.488)"/><path class="a" d="M861.768,796.854h-8.045v5.2h8.994v4.051H848.78V784.24h13.47v4.051h-8.527v4.555h8.045Z" transform="translate(-684.813 -783.887)"/></g></g><rect class="b" width="35.685" height="35.685" transform="translate(0 29.232)"/><g transform="translate(11.928 37.987)"><path class="a" d="M425.651,889.68v9.384c0,2.82,1.085,4.258,2.955,4.258,1.938,0,3-1.367,3-4.258V889.68H435.3v9.155c0,5.033-2.545,7.428-6.817,7.428-4.119,0-6.521-2.284-6.521-7.471V889.68Z" transform="translate(-421.96 -889.68)"/></g><rect class="c" width="35.685" height="35.685" transform="translate(35.685 29.232)"/><g transform="translate(46.386 37.987)"><path class="a" d="M518.5,905.995V889.68h4.3l3.387,5.986a46.45,46.45,0,0,1,2.666,5.6l.064-.007a64.209,64.209,0,0,1-.3-6.817V889.68h3.387v16.315H528.14l-3.5-6.285a58.8,58.8,0,0,1-2.834-5.764l-.082.007c.114,2.163.161,4.472.161,7.135v4.9H518.5Z" transform="translate(-518.5 -889.68)"/></g><rect class="b" width="35.685" height="35.685" transform="translate(71.37 29.232)"/><g transform="translate(87.546 37.984)"><g transform="translate(0 0)"><path class="a" d="M637.51,889.67v16.315H633.82V889.67Z" transform="translate(-633.82 -889.67)"/></g></g><rect class="c" width="35.685" height="35.685" transform="translate(107.084 29.232)"/><g transform="translate(118.731 38.184)"><g transform="translate(0 0)"><path class="a" d="M725.594,893.328h-4.4v-3.1h12.557v3.1h-4.465v13.22h-3.691v-13.22Z" transform="translate(-721.19 -890.23)"/></g></g><rect class="b" width="35.685" height="35.685" transform="translate(142.598 29.232)"/><g transform="translate(155.165 37.994)"><g transform="translate(0 0)"><path class="a" d="M824.016,902.035a9.376,9.376,0,0,0,4.09.989c1.7,0,2.591-.678,2.591-1.717,0-.967-.778-1.538-2.73-2.206-2.723-.931-4.5-2.366-4.5-4.668,0-2.688,2.334-4.733,6.171-4.733a9.967,9.967,0,0,1,4.165.792l-.814,2.859a8.02,8.02,0,0,0-3.405-.749c-1.606,0-2.373.717-2.373,1.524,0,1,.9,1.446,3.02,2.216,2.888,1.042,4.226,2.491,4.226,4.722,0,2.634-2.084,4.893-6.578,4.893a10.815,10.815,0,0,1-4.608-.982Z" transform="translate(-823.27 -889.7)"/></g></g><line class="d" y2="35.685" transform="translate(35.685 29.232)"/><line class="d" y2="35.685" transform="translate(71.37 29.232)"/><line class="d" y2="35.685" transform="translate(107.084 29.232)"/><line class="d" y2="35.685" transform="translate(142.598 29.232)"/></svg>